%TF.GenerationSoftware,Altium Limited,Altium Designer,21.2.0 (30)*%
G04 Layer_Color=8421504*
%FSLAX26Y26*%
%MOIN*%
%TF.SameCoordinates,90D3C40E-C8BF-42D9-AC10-40188C9CF084*%
%TF.FilePolarity,Positive*%
%TF.FileFunction,Paste,Top*%
%TF.Part,Single*%
G01*
G75*
%TA.AperFunction,SMDPad,CuDef*%
%ADD12C,0.039370*%
%ADD24R,0.045276X0.057087*%
%TA.AperFunction,NonConductor*%
%ADD26R,0.026264X0.053823*%
%TA.AperFunction,SMDPad,CuDef*%
%ADD27R,0.057087X0.051181*%
%ADD28R,0.057087X0.045276*%
%ADD29R,0.057087X0.055118*%
G04:AMPARAMS|DCode=30|XSize=37.64mil|YSize=9.546mil|CornerRadius=4.773mil|HoleSize=0mil|Usage=FLASHONLY|Rotation=0.000|XOffset=0mil|YOffset=0mil|HoleType=Round|Shape=RoundedRectangle|*
%AMROUNDEDRECTD30*
21,1,0.037640,0.000000,0,0,0.0*
21,1,0.028094,0.009546,0,0,0.0*
1,1,0.009546,0.014047,0.000000*
1,1,0.009546,-0.014047,0.000000*
1,1,0.009546,-0.014047,0.000000*
1,1,0.009546,0.014047,0.000000*
%
%ADD30ROUNDEDRECTD30*%
%ADD31R,0.037640X0.009546*%
G04:AMPARAMS|DCode=32|XSize=55.118mil|YSize=31.496mil|CornerRadius=0mil|HoleSize=0mil|Usage=FLASHONLY|Rotation=145.000|XOffset=0mil|YOffset=0mil|HoleType=Round|Shape=Rectangle|*
%AMROTATEDRECTD32*
4,1,4,0.031608,-0.002907,0.013542,-0.028707,-0.031608,0.002907,-0.013542,0.028707,0.031608,-0.002907,0.0*
%
%ADD32ROTATEDRECTD32*%

G04:AMPARAMS|DCode=33|XSize=55.118mil|YSize=31.496mil|CornerRadius=0mil|HoleSize=0mil|Usage=FLASHONLY|Rotation=263.967|XOffset=0mil|YOffset=0mil|HoleType=Round|Shape=Rectangle|*
%AMROTATEDRECTD33*
4,1,4,-0.012764,0.029062,0.018557,0.025751,0.012764,-0.029062,-0.018557,-0.025751,-0.012764,0.029062,0.0*
%
%ADD33ROTATEDRECTD33*%

G04:AMPARAMS|DCode=34|XSize=55.118mil|YSize=31.496mil|CornerRadius=0mil|HoleSize=0mil|Usage=FLASHONLY|Rotation=291.651|XOffset=0mil|YOffset=0mil|HoleType=Round|Shape=Rectangle|*
%AMROTATEDRECTD34*
4,1,4,-0.024805,0.019804,0.004469,0.031425,0.024805,-0.019804,-0.004469,-0.031425,-0.024805,0.019804,0.0*
%
%ADD34ROTATEDRECTD34*%

G04:AMPARAMS|DCode=35|XSize=55.118mil|YSize=31.496mil|CornerRadius=0mil|HoleSize=0mil|Usage=FLASHONLY|Rotation=240.034|XOffset=0mil|YOffset=0mil|HoleType=Round|Shape=Rectangle|*
%AMROTATEDRECTD35*
4,1,4,0.000122,0.031741,0.027408,0.016009,-0.000122,-0.031741,-0.027408,-0.016009,0.000122,0.031741,0.0*
%
%ADD35ROTATEDRECTD35*%

G04:AMPARAMS|DCode=36|XSize=55.118mil|YSize=31.496mil|CornerRadius=0mil|HoleSize=0mil|Usage=FLASHONLY|Rotation=95.146|XOffset=0mil|YOffset=0mil|HoleType=Round|Shape=Rectangle|*
%AMROTATEDRECTD36*
4,1,4,0.018156,-0.026036,-0.013213,-0.028860,-0.018156,0.026036,0.013213,0.028860,0.018156,-0.026036,0.0*
%
%ADD36ROTATEDRECTD36*%

G04:AMPARAMS|DCode=37|XSize=55.118mil|YSize=31.496mil|CornerRadius=0mil|HoleSize=0mil|Usage=FLASHONLY|Rotation=120.000|XOffset=0mil|YOffset=0mil|HoleType=Round|Shape=Rectangle|*
%AMROTATEDRECTD37*
4,1,4,0.027418,-0.015993,0.000141,-0.031741,-0.027418,0.015993,-0.000141,0.031741,0.027418,-0.015993,0.0*
%
%ADD37ROTATEDRECTD37*%

G04:AMPARAMS|DCode=38|XSize=55.118mil|YSize=31.496mil|CornerRadius=0mil|HoleSize=0mil|Usage=FLASHONLY|Rotation=70.000|XOffset=0mil|YOffset=0mil|HoleType=Round|Shape=Rectangle|*
%AMROTATEDRECTD38*
4,1,4,0.005373,-0.031283,-0.024224,-0.020511,-0.005373,0.031283,0.024224,0.020511,0.005373,-0.031283,0.0*
%
%ADD38ROTATEDRECTD38*%

G04:AMPARAMS|DCode=39|XSize=55.118mil|YSize=31.496mil|CornerRadius=0mil|HoleSize=0mil|Usage=FLASHONLY|Rotation=215.000|XOffset=0mil|YOffset=0mil|HoleType=Round|Shape=Rectangle|*
%AMROTATEDRECTD39*
4,1,4,0.013542,0.028707,0.031608,0.002907,-0.013542,-0.028707,-0.031608,-0.002907,0.013542,0.028707,0.0*
%
%ADD39ROTATEDRECTD39*%

D12*
X1460000Y2175000D02*
D03*
X-970000Y2660000D02*
D03*
X1534473Y1718449D02*
D03*
X1044473D02*
D03*
X-1320000Y-520000D02*
D03*
X1170000Y775000D02*
D03*
D24*
X1069119Y1458449D02*
D03*
X1149827D02*
D03*
X1504827D02*
D03*
X1424119D02*
D03*
X1325182D02*
D03*
X1244473D02*
D03*
D26*
X1299473Y1603449D02*
D03*
D27*
X-510000Y2360197D02*
D03*
Y2435000D02*
D03*
X95000Y2537953D02*
D03*
Y2612756D02*
D03*
X685000Y2537953D02*
D03*
Y2612756D02*
D03*
X1280000Y2537953D02*
D03*
Y2612756D02*
D03*
D28*
X95000Y2357244D02*
D03*
Y2437953D02*
D03*
X-510000Y2535000D02*
D03*
Y2615709D02*
D03*
X685917Y2357244D02*
D03*
Y2437953D02*
D03*
X1279435Y2357244D02*
D03*
Y2437953D02*
D03*
X1134473Y1558094D02*
D03*
Y1638803D02*
D03*
D29*
X1444473Y1633882D02*
D03*
Y1563016D02*
D03*
D30*
X1251125Y1613291D02*
D03*
Y1593606D02*
D03*
Y1573921D02*
D03*
X1347821D02*
D03*
Y1593606D02*
D03*
Y1613291D02*
D03*
Y1632976D02*
D03*
D31*
X1251125D02*
D03*
D32*
X-896337Y-1111934D02*
D03*
X-821817Y-1005509D02*
D03*
X-663791Y-1116159D02*
D03*
X-738311Y-1222585D02*
D03*
D33*
X1389755Y-235925D02*
D03*
X1260554Y-222270D02*
D03*
X1280830Y-30425D02*
D03*
X1410031Y-44080D02*
D03*
D34*
X1355153Y392623D02*
D03*
X1234398Y344688D02*
D03*
X1163222Y523992D02*
D03*
X1283977Y571926D02*
D03*
D35*
X1168572Y-786010D02*
D03*
X1056019Y-721116D02*
D03*
X1152376Y-553990D02*
D03*
X1264929Y-618884D02*
D03*
D36*
X-1428175Y-28290D02*
D03*
X-1298777Y-16637D02*
D03*
X-1281475Y-208773D02*
D03*
X-1410873Y-220426D02*
D03*
D37*
X-1282281Y-628946D02*
D03*
X-1169765Y-563986D02*
D03*
X-1073309Y-731054D02*
D03*
X-1185824Y-796014D02*
D03*
D38*
X-1372015Y396726D02*
D03*
X-1249929Y352290D02*
D03*
X-1183949Y533569D02*
D03*
X-1306035Y578005D02*
D03*
D39*
X884865Y-1095551D02*
D03*
X810345Y-989126D02*
D03*
X652320Y-1099776D02*
D03*
X726839Y-1206202D02*
D03*
%TF.MD5,98be4117156b6ef6c5e97c10ce00e250*%
M02*
